<svg id="Capa_1" enable-background="new 0 0 512.542 512.542" height="28px" viewBox="0 0 512.542 512.542" width="28px" xmlns="http://www.w3.org/2000/svg"><path d="m502.221 119.64v363.96c0 10.46-8.48 18.94-18.94 18.94h-312.95c-10.46 0-18.94-8.48-18.94-18.94v-454.66c0-10.46 8.48-18.94 18.94-18.94h222.25c2.5 0 4.96.54 7.2 1.56v88.67c0 6.74 5.47 12.21 12.22 12.21h88.66c1.02 2.24 1.56 4.69 1.56 7.2z" fill="#eff3f3"/><path d="m90.271 101.63v348.37h-79.95v-347.96c0-.51.01-1.03.02-1.54h79.92c.01.37.01.75.01 1.13z" fill="#ffcd69"/><path d="m90.261 100.5h-79.92c.15-5.54 1.09-11.04 2.8-16.32l12.32-34.18h50.4l11.84 34.55c1.59 5.17 2.45 10.54 2.56 15.95z" fill="#ffe6c0"/><path d="m75.861 50h-50.4l11.52-31.95c6.36-10.7 21.92-10.53 28.04.32z" fill="#98a1b3"/><path d="m90.271 450v12.27c0 11.03-4.48 21.03-11.71 28.26s-17.23 11.71-28.26 11.71c-22.08.01-39.98-17.89-39.98-39.97v-12.27z" fill="#f5737f"/><path d="m500.661 112.44h-88.66c-6.75 0-12.22-5.47-12.22-12.21v-88.67c1.88.85 3.61 2.04 5.1 3.53l92.25 92.26c1.49 1.49 2.67 3.21 3.53 5.09z" fill="#cecdf3"/><path d="m504.202 100.275-92.254-92.254c-5.173-5.172-12.05-8.021-19.366-8.021h-222.25c-15.957 0-28.938 12.982-28.938 28.938v454.665c0 15.957 12.982 28.938 28.938 28.938h312.953c15.957 0 28.938-12.982 28.938-28.938v-363.962c0-7.315-2.848-14.192-8.021-19.366zm-26.121 2.164h-66.084c-1.22 0-2.212-.993-2.212-2.213v-66.084zm5.204 390.103h-312.953c-4.929 0-8.938-4.01-8.938-8.938v-454.666c0-4.929 4.01-8.938 8.938-8.938h219.452v80.226c0 12.248 9.964 22.213 22.212 22.213h80.227v361.164c0 4.929-4.009 8.939-8.938 8.939z"/><path d="m211.857 159.38h139.414c5.523 0 10-4.477 10-10s-4.477-10-10-10h-139.414c-5.523 0-10 4.477-10 10s4.477 10 10 10z"/><path d="m441.042 319.298h-229.185c-5.523 0-10 4.477-10 10s4.477 10 10 10h229.185c5.523 0 10-4.477 10-10s-4.477-10-10-10z"/><path d="m386.042 379.271h-174.185c-5.523 0-10 4.477-10 10s4.477 10 10 10h174.185c5.523 0 10-4.477 10-10s-4.477-10-10-10z"/><path d="m442.271 259.326h-230.414c-5.523 0-10 4.477-10 10s4.477 10 10 10h230.414c5.523 0 10-4.477 10-10s-4.477-10-10-10z"/><path d="m100.237 99.838c-.163-6.186-1.158-12.312-2.984-18.232-.03-.099-.062-.196-.096-.294l-22.676-66.187c-.198-.58-.45-1.14-.751-1.673-4.649-8.237-13.071-13.218-22.528-13.324-9.435-.114-17.988 4.686-22.819 12.817-.324.545-.595 1.12-.81 1.716l-23.842 66.13c-.037.103-.072.206-.106.31-1.936 5.977-3.027 12.164-3.258 18.427-.031.32-.049 362.74-.049 362.74 0 13.35 5.199 25.901 14.64 35.34s21.992 14.637 35.342 14.636c27.554-.003 49.971-22.422 49.971-49.976 0 0-.019-362.21-.034-362.43zm-79.919 340.162v-329.5h20.953v329.5zm12.169-380h36.227l9.47 27.64c.289.946.54 1.901.769 2.86h-57.22c.257-1.036.542-2.066.869-3.086zm28.784 50.5h19v329.5h-19zm-10.292-90.373c.992.011 3.343.294 4.947 2.545l5.936 17.328h-22.164l6.295-17.459c1.652-2.197 4.01-2.408 4.986-2.414zm-.681 472.117c-8.008.001-15.536-3.117-21.199-8.779s-8.781-13.19-8.781-21.197v-2.268h59.953v2.268c0 16.527-13.446 29.974-29.973 29.976z"/><path d="m432.037 379.293c-5.523 0-10.005 4.482-10.005 10.005s4.482 10.005 10.005 10.005 10.005-4.482 10.005-10.005-4.482-10.005-10.005-10.005z"/><path d="m211.271 220h180.414c5.523 0 10-4.477 10-10s-4.477-10-10-10h-180.414c-5.523 0-10 4.477-10 10s4.477 10 10 10z"/></svg>